HIERARCHY
ROOT root
{
	OFFSET	0	13.1	24.9
	CHANNELS 6  Xposition Yposition Zposition Xrotation Yrotation Zrotation
	JOINT spine_1
	{
		OFFSET	0	9.99999	0
		CHANNELS 3  Xrotation Yrotation Zrotation
		JOINT spine_2
		{
			OFFSET	0	112	-10
			CHANNELS 3  Xrotation Yrotation Zrotation
			JOINT spine_3
			{
				OFFSET	0	206.5	19.3
				CHANNELS 3  Xrotation Yrotation Zrotation
				JOINT spine_4
				{
					OFFSET	0	110.4	14.6
					CHANNELS 3  Xrotation Yrotation Zrotation
					JOINT neck_1
					{
						OFFSET	0	71.8	-50.3
						CHANNELS 3  Xrotation Yrotation Zrotation
						JOINT neck_2
						{
							OFFSET	0	86.2	-25.8
							CHANNELS 3  Xrotation Yrotation Zrotation
							JOINT head_ee
							{
								OFFSET	0	179.8	-8.7
								CHANNELS 3  Xrotation Yrotation Zrotation
								End Site
								{
									OFFSET	1	0	0
								}
							}
						}
					}
					JOINT left_clavicle
					{
						OFFSET	-43.2	22.4	-70.8
						CHANNELS 3  Xrotation Yrotation Zrotation
						JOINT left_shoulder
						{
							OFFSET	-93.9	-5.79999	48.7
							CHANNELS 3  Xrotation Yrotation Zrotation
							JOINT left_elbow
							{
								OFFSET	-291.4	-30.8	15.2
								CHANNELS 3  Xrotation Yrotation Zrotation
								JOINT left_lowarm_twist
								{
									OFFSET	-110.7	-3.89999	13.6
									CHANNELS 3  Xrotation Yrotation Zrotation
									JOINT left_hand
									{
										OFFSET	-110.7	-3.89999	13.6
										CHANNELS 3  Xrotation Yrotation Zrotation
										JOINT left_ee
										{
											OFFSET	-80.8	-5.10001	12.1
											CHANNELS 3  Xrotation Yrotation Zrotation
											End Site
											{
												OFFSET	1	0	0
											}
										}
									}
								}
							}
						}
					}
					JOINT right_clavicle
					{
						OFFSET	43.2	22.4	-70.8
						CHANNELS 3  Xrotation Yrotation Zrotation
						JOINT right_shoulder
						{
							OFFSET	93.9	-5.79999	48.7
							CHANNELS 3  Xrotation Yrotation Zrotation
							JOINT right_elbow
							{
								OFFSET	291.4	-30.8	15.2
								CHANNELS 3  Xrotation Yrotation Zrotation
								JOINT right_lowarm_twist
								{
									OFFSET	110.7	-3.89999	13.6
									CHANNELS 3  Xrotation Yrotation Zrotation
									JOINT right_hand
									{
										OFFSET	110.7	-3.89999	13.6
										CHANNELS 3  Xrotation Yrotation Zrotation
										JOINT right_ee
										{
											OFFSET	80.8	-5.10001	12.1
											CHANNELS 3  Xrotation Yrotation Zrotation
											End Site
											{
												OFFSET	1	0	0
											}
										}
									}
								}
							}
						}
					}
				}
			}
		}
	}
	JOINT left_hip
	{
		OFFSET	-82.8	-127.5	0.300001
		CHANNELS 3  Xrotation Yrotation Zrotation
		JOINT left_knee
		{
			OFFSET	-28.2	-396.7	2.2
			CHANNELS 3  Xrotation Yrotation Zrotation
			JOINT left_ankle
			{
				OFFSET	-11.7	-411.3	35.4
				CHANNELS 3  Xrotation Yrotation Zrotation
				JOINT left_toes
				{
					OFFSET	0	-60	-88.6
					CHANNELS 3  Xrotation Yrotation Zrotation
					JOINT left_foot_ee
					{
						OFFSET	-22.5	-16.5	-42.2
						CHANNELS 3  Xrotation Yrotation Zrotation
						End Site
						{
							OFFSET	1	0	0
						}
					}
				}
			}
		}
	}
	JOINT right_hip
	{
		OFFSET	82.8	-127.5	0.300001
		CHANNELS 3  Xrotation Yrotation Zrotation
		JOINT right_knee
		{
			OFFSET	28.2	-396.7	2.2
			CHANNELS 3  Xrotation Yrotation Zrotation
			JOINT right_ankle
			{
				OFFSET	11.7	-411.3	35.4
				CHANNELS 3  Xrotation Yrotation Zrotation
				JOINT right_toes
				{
					OFFSET	0	-60	-88.6
					CHANNELS 3  Xrotation Yrotation Zrotation
					JOINT right_foot_ee
					{
						OFFSET	22.5	-16.5	-42.2
						CHANNELS 3  Xrotation Yrotation Zrotation
						End Site
						{
							OFFSET	1	0	0
						}
					}
				}
			}
		}
	}
}
MOTION
Frames: 14
Frame Time: 0.02
3177.02 653.055 -1669.29 -4.85408486837 42.9451227733 10.2284646906 1.94306 0.812982 0.306198 1.94276 0.791851 0.357312 1.94779 0.716218 0.491667 1.94831 0.784878 0.37238 -5.84317 18.0571 -6.72407 -5.40683 38.2781 -3.50223 -0.0 0.0 -0.0 -4.01073 24.3634 -2.5825 -28.1983 4.38575 74.7432 0.532621 -14.7805 0.0690838 -74.73 -7.15038 5.3196 2.10423 -8.04455 10.8551 -0.0 0.0 -0.0 7.29454 28.1328 -12.6451 3.52212 33.8486 -62.5065 2.24757 48.0644 -1.0023 40.5306 0.377148 5.05733 1.92669 16.9784 -5.66445 0.0 0.0 0.0 26.7581 12.6535 -19.7199 -0.0465084 0.00191212 0.006881 -5.5775 25.3344 0.862305 -19.916 0.0 0.0 -0.0 0.0 -0.0 67.4253 84.4422 -81.9558 -16.3944 -0.321143 -2.48683 28.9595 -27.8519 4.05929 32.5442 -0.0 -0.0 0.0 0.0 0.0 
3177.02 653.055 -1669.29 -4.86277069678 43.0547051675 10.2412005546 1.94306 0.812982 0.306198 1.94276 0.791851 0.357312 1.94779 0.716218 0.491667 1.94831 0.784878 0.37238 -5.84317 18.0571 -6.72407 -5.40683 38.2781 -3.50223 -0.0 0.0 -0.0 -4.01073 24.3634 -2.5825 -28.1983 4.38575 74.7432 0.532621 -14.7805 0.0690838 -74.73 -7.15038 5.3196 2.10423 -8.04455 10.8551 -0.0 0.0 -0.0 7.29454 28.1328 -12.6451 3.52212 33.8486 -62.5065 2.24757 48.0644 -1.0023 40.5306 0.377148 5.05733 1.92669 16.9784 -5.66445 0.0 0.0 0.0 26.7581 12.6535 -19.7199 -0.0465084 0.00191212 0.006881 -5.5775 25.3344 0.862305 -19.916 0.0 0.0 -0.0 0.0 -0.0 67.4253 84.4422 -81.9558 -16.3944 -0.321143 -2.48683 28.9595 -27.8519 4.05929 32.5442 -0.0 -0.0 0.0 0.0 0.0 
3148.23401663 650.634 -1679.20120385 -4.63068870708 44.759063323 9.85748406234 2.11747 0.61467 0.415545 2.11737 0.586982 0.453816 2.1221 0.499183 0.548921 2.12214 0.579609 0.463196 -7.86203 18.7488 -4.75194 -7.92688 38.3346 -0.510024 -0.0 0.0 -0.0 -3.59271 23.7029 -2.15982 -26.055 2.1673 72.8067 0.317511 -8.93877 0.024818 -70.0393 -6.55103 5.30261 2.2236 -10.7089 10.5071 -0.0 0.0 -0.0 7.6774 28.8945 -13.3988 1.673 33.1913 -63.0075 2.08894 45.9742 -0.886228 40.5326 0.377254 5.05756 1.46051 12.5049 -4.5267 0.0 0.0 0.0 26.9942 12.2591 -19.1467 -7.01817 0.224693 1.05297 4.80852 23.5617 -0.720592 -20.3261 0.0 0.0 -0.0 0.0 -0.0 33.4284 78.7563 -48.6706 -24.4869 -0.215459 -3.72303 30.2132 -25.3044 4.13944 33.9618 -0.0 -0.0 0.0 0.0 0.0 
3148.19013687 650.634 -1679.07283149 -4.65126515304 45.0135442397 9.88664139563 2.11747 0.61467 0.415545 2.11737 0.586982 0.453816 2.1221 0.499183 0.548921 2.12214 0.579609 0.463196 -7.86203 18.7488 -4.75194 -7.92688 38.3346 -0.510024 -0.0 0.0 -0.0 -3.59271 23.7029 -2.15982 -26.055 2.1673 72.8067 0.317511 -8.93877 0.024818 -70.0393 -6.55103 5.30261 2.2236 -10.7089 10.5071 -0.0 0.0 -0.0 7.6774 28.8945 -13.3988 1.673 33.1913 -63.0075 2.08894 45.9742 -0.886228 40.5326 0.377254 5.05756 1.46051 12.5049 -4.5267 0.0 0.0 0.0 26.9942 12.2591 -19.1467 -7.01817 0.224693 1.05297 4.80852 23.5617 -0.720592 -20.3261 0.0 0.0 -0.0 0.0 -0.0 33.4284 78.7563 -48.6706 -24.4869 -0.215459 -3.72303 30.2132 -25.3044 4.13944 33.9618 -0.0 -0.0 0.0 0.0 0.0 
3125.84316415 655.629 -1683.54000956 -4.35011730247 47.1661338982 9.89728991079 2.2564 0.578237 0.170439 2.25624 0.56622 0.20689 2.25833 0.52236 0.300914 2.25864 0.563328 0.214639 -10.2007 18.7404 -4.98808 -10.734 38.6338 0.226394 -0.0 0.0 -0.0 -3.04956 23.5681 -1.44248 -25.1944 -0.0773092 71.0732 0.283224 -7.9867 0.0197719 -67.2654 -6.19764 5.26934 1.94881 -11.5734 8.24698 -0.0 0.0 -0.0 8.01306 28.6565 -14.1636 -0.0378306 31.9779 -63.6069 1.80852 41.8528 -0.691612 42.3167 0.475218 5.26368 0.664018 7.80262 -1.17132 0.0 0.0 0.0 26.3765 12.5616 -18.4224 -8.81598 0.261358 1.32641 4.97327 17.7759 -0.72848 -22.5344 0.0 0.0 -0.0 0.0 -0.0 27.1697 74.4062 -43.4962 -27.0721 -0.14503 -4.11348 26.6199 -25.8086 3.72476 35.403 -0.0 -0.0 0.0 0.0 0.0 
3100.85652126 660.235 -1685.39966498 -3.93559009818 47.45642346 9.79963899813 2.17863 0.455242 0.233736 2.17856 0.439447 0.26223 2.1806 0.387521 0.334224 2.18071 0.435442 0.268828 -12.5216 18.565 -4.89204 -13.5137 38.3259 1.23188 -0.0 0.0 -0.0 -2.49193 23.5628 -0.678912 -22.287 -2.20311 69.3734 0.276717 -7.80548 0.0188779 -66.3569 -6.08224 5.25471 2.33389 -11.9288 10.7178 -0.0 0.0 -0.0 8.09589 28.5396 -14.3592 -2.03334 30.648 -63.8561 1.74052 40.7644 -0.646722 45.0229 0.635971 5.57031 0.528587 5.26942 -1.33041 0.0 0.0 0.0 25.8594 12.9561 -18.3224 -13.5302 0.316602 2.04743 10.693 13.2095 -1.52291 -21.4165 0.0 0.0 -0.0 0.0 -0.0 24.3716 70.3871 -41.1826 -32.3052 0.0511093 -4.89236 23.4967 -25.3046 3.32578 35.2868 -0.0 -0.0 0.0 0.0 0.0 
3074.8312552 664.804 -1695.89847488 -2.29689329434 48.7240880732 8.99947863031 2.00765 0.461882 0.108756 2.00754 0.454026 0.137927 2.00866 0.422714 0.215583 2.00888 0.451457 0.146117 -15.1858 18.4076 -3.34047 -16.6439 37.1489 3.70573 -0.0 0.0 -0.0 -2.20487 23.4868 -0.299174 -19.7198 -5.1974 67.398 0.286464 -8.07687 0.0202247 -65.4756 -5.97051 5.23876 3.01715 -13.058 14.9107 -0.0 0.0 -0.0 8.29567 28.3688 -14.8187 -4.426 29.4855 -64.5857 1.53846 37.3088 -0.519405 46.4499 0.726539 5.7289 -0.0258431 5.17525 2.36779 0.0 0.0 0.0 25.5336 14.5707 -18.6928 -15.8585 0.321964 2.40461 15.7175 14.1804 -2.20136 -24.9022 0.0 0.0 -0.0 0.0 -0.0 19.34 63.023 -37.7087 -36.4127 0.254459 -5.48954 22.8777 -26.8306 3.27722 34.3361 -0.0 -0.0 0.0 0.0 0.0 
3074.96423971 664.804 -1696.40406076 -2.28404241081 48.4406558709 8.98234205949 2.00765 0.461882 0.108756 2.00754 0.454026 0.137927 2.00866 0.422714 0.215583 2.00888 0.451457 0.146117 -15.1858 18.4076 -3.34047 -16.6439 37.1489 3.70573 -0.0 0.0 -0.0 -2.20487 23.4868 -0.299174 -19.7198 -5.1974 67.398 0.286464 -8.07687 0.0202247 -65.4756 -5.97051 5.23876 3.01715 -13.058 14.9107 -0.0 0.0 -0.0 8.29567 28.3688 -14.8187 -4.426 29.4855 -64.5857 1.53846 37.3088 -0.519405 46.4499 0.726539 5.7289 -0.0258431 5.17525 2.36779 0.0 0.0 0.0 25.5336 14.5707 -18.6928 -15.8585 0.321964 2.40461 15.7175 14.1804 -2.20136 -24.9022 0.0 0.0 -0.0 0.0 -0.0 19.34 63.023 -37.7087 -36.4127 0.254459 -5.48954 22.8777 -26.8306 3.27722 34.3361 -0.0 -0.0 0.0 0.0 0.0 
3050.77820708 671.249 -1703.61991437 0.0816539673517 49.9369577209 7.63751639002 1.79749 0.56642 -0.115038 1.79731 0.572593 -0.0787609 1.79651 0.577432 0.0252558 1.79697 0.574173 -0.0662588 -18.5316 17.1975 -1.48415 -20.2269 33.8477 6.06338 -0.0 0.0 -0.0 -1.94255 23.9545 0.138153 -17.8057 -9.68081 65.4611 0.395636 -11.0888 0.0384051 -63.78 -5.75624 5.20322 3.02679 -12.2708 15.3463 -0.0 0.0 -0.0 8.84573 28.543 -16.0125 -6.99129 27.9217 -63.7386 1.25016 31.7682 -0.355755 48.8513 0.887806 5.99057 -0.248862 0.298126 1.78905 0.0 0.0 0.0 22.8586 15.1442 -18.5866 -18.3641 0.31152 2.78887 18.2001 8.34996 -2.50558 -25.1326 0.0 0.0 -0.0 0.0 -0.0 12.7078 50.8555 -28.3531 -40.6667 0.509726 -6.09135 26.2492 -21.34 3.5929 32.5711 -0.0 -0.0 0.0 0.0 0.0 
3025.96002104 674.687 -1708.06369929 2.05273337343 50.3884348157 6.331428304 1.71273 0.453012 -0.435308 1.7127 0.479794 -0.4056 1.70925 0.545265 -0.312087 1.70945 0.489134 -0.394285 -20.1318 17.3741 -1.49407 -22.1219 34.1864 6.72923 -0.0 0.0 -0.0 -1.63286 23.3117 0.456734 -15.0629 -11.974 65.2043 0.416801 -11.6662 0.0425805 -62.2534 -5.56425 5.16579 3.23777 -13.7196 16.1325 -0.0 0.0 -0.0 9.06587 28.5537 -16.4982 -9.30241 27.0322 -63.9172 1.10075 28.6019 -0.280605 50.9037 1.03426 6.20876 -0.869925 -2.72108 4.62387 0.0 0.0 0.0 21.3464 16.7369 -18.5851 -20.6085 0.287909 3.1324 21.2495 9.85704 -2.88794 -27.4081 0.0 0.0 -0.0 0.0 -0.0 11.4235 50.3013 -27.9415 -41.1833 0.543757 -6.16312 28.9117 -22.8272 3.93307 33.4911 -0.0 -0.0 0.0 0.0 0.0 
2998.1553155 676.231 -1704.8731356 4.5031635891 53.6596328369 4.01017866653 1.54352 0.379764 -0.578239 1.54361 0.415788 -0.552903 1.53953 0.51036 -0.467027 1.53948 0.430198 -0.541767 -21.4886 16.3493 -1.5928 -23.4129 32.2439 6.51499 -0.0 0.0 -0.0 -1.58516 23.4555 0.544685 -13.0129 -14.1544 65.2964 0.496708 -13.8235 0.0602119 -61.1972 -5.432 5.13689 3.45199 -14.3819 17.3096 -0.0 0.0 -0.0 9.29786 28.8018 -16.9827 -11.3553 26.3785 -64.2211 0.912508 24.324 -0.196662 52.5743 1.15921 6.38244 -1.29444 -7.73528 5.18067 0.0 0.0 0.0 17.6133 15.6981 -17.0672 -22.584 0.256004 3.43384 23.7297 6.04243 -3.1824 -28.2653 0.0 0.0 -0.0 0.0 -0.0 8.4546 43.4765 -23.3726 -44.3285 0.764849 -6.59332 28.7273 -21.2739 3.88202 33.0412 -0.0 -0.0 0.0 0.0 0.0 
2977.16921687 676.735 -1701.41005886 5.35695947717 55.5521075511 3.30054524765 1.38983 0.215513 -0.725946 1.39009 0.261269 -0.710763 1.38681 0.389233 -0.649573 1.38633 0.281763 -0.70289 -22.1638 15.6894 -1.7207 -24.0097 31.0183 6.22793 -0.0 0.0 -0.0 -1.43723 23.3931 0.737789 -11.2062 -15.8116 65.7451 0.555328 -15.3814 0.0749921 -60.4661 -5.34077 5.11545 3.52986 -13.9677 18.0591 -0.0 0.0 -0.0 9.09459 28.6385 -16.5518 -12.7385 26.1093 -64.932 0.854397 22.94 -0.173366 53.9679 1.26729 6.52451 -0.997509 -13.2138 0.832213 0.0 0.0 0.0 16.4616 14.3973 -16.478 -23.5832 0.235912 3.58586 24.2121 1.58197 -3.25194 -29.2102 0.0 0.0 -0.0 0.0 -0.0 6.38957 39.0026 -20.9458 -43.3837 0.695951 -6.46536 25.2973 -20.5182 3.466 33.2569 -0.0 -0.0 0.0 0.0 0.0 
2946.41213249 683.709 -1693.96543403 8.17153277544 56.7362902466 0.733257012548 1.27434 0.173091 -0.794612 1.27467 0.223302 -0.781989 1.2716 0.366677 -0.725894 1.27095 0.247437 -0.77469 -22.8311 15.1305 -1.98357 -24.625 30.0406 5.86243 -0.0 0.0 -0.0 -1.34301 23.6531 0.905617 -9.65596 -16.8182 65.2822 0.651326 -17.8823 0.102475 -58.9595 -5.15365 5.06761 3.77383 -15.9213 18.8012 -0.0 0.0 -0.0 8.71358 28.2275 -15.757 -15.7075 26.3014 -65.8792 0.839389 22.5778 -0.16756 53.8652 1.2592 6.51413 -1.36259 -16.0007 1.8541 0.0 0.0 0.0 12.0088 13.4635 -14.6722 -24.9857 0.203245 3.7986 25.442 2.93041 -3.38872 -28.922 0.0 0.0 -0.0 0.0 -0.0 7.70348 34.1223 -19.808 -44.4897 0.776819 -6.61504 26.6593 -19.029 3.60622 33.1301 -0.0 -0.0 0.0 0.0 0.0 
2924.40064974 685.618 -1679.24899461 9.46139527436 58.3341376808 -0.707683397591 1.28083 0.162663 -0.918996 1.28128 0.220809 -0.906784 1.27776 0.387663 -0.848964 1.27685 0.248726 -0.899528 -24.2084 14.7992 -0.240988 -25.9679 28.5913 7.63398 -0.0 0.0 -0.0 -1.6196 23.4219 0.492254 -8.70247 -17.1032 65.4702 0.856437 -22.9891 0.174162 -57.6131 -4.98749 5.02069 3.82108 -16.33 18.9247 -0.0 0.0 -0.0 8.32545 28.1922 -14.9044 -18.2043 27.7979 -65.9711 0.789864 21.3691 -0.149028 54.3231 1.29539 6.56031 -1.30538 -19.4978 -0.0719801 0.0 0.0 0.0 9.4507 15.819 -13.9649 -23.0871 0.246218 3.51043 27.5797 2.35666 -3.63285 -28.5724 0.0 0.0 -0.0 0.0 -0.0 6.82481 31.5161 -18.4343 -45.0894 0.821879 -6.69556 25.7945 -20.337 3.52286 33.8641 -0.0 -0.0 0.0 0.0 0.0 
